<svg width="28" height="28" viewBox="0 0 28 28" fill="none" xmlns="http://www.w3.org/2000/svg">
<path d="M26.5775 6.89628C26.865 5.87174 26.9442 4.79998 26.8104 3.74431C26.6767 2.68865 26.3327 1.6705 25.7987 0.750032C25.6671 0.522045 25.4778 0.332715 25.2498 0.201065C25.0219 0.0694154 24.7633 8.21168e-05 24.5 3.15503e-05C23.2995 -0.00334751 22.1137 0.26474 21.0314 0.784246C19.9491 1.30375 18.9983 2.06123 18.25 3.00003H15.75C15.0017 2.06123 14.0509 1.30375 12.9686 0.784246C11.8863 0.26474 10.7005 -0.00334751 9.5 3.15503e-05C9.23674 8.21168e-05 8.97814 0.0694154 8.75016 0.201065C8.52219 0.332715 8.33288 0.522045 8.20125 0.750032C7.66734 1.6705 7.32334 2.68865 7.18959 3.74431C7.05583 4.79998 7.13503 5.87174 7.4225 6.89628C6.82461 8.0039 6.50784 9.24137 6.5 10.5V11.5C6.50235 13.1788 7.06696 14.8085 8.10373 16.1289C9.1405 17.4494 10.5897 18.3845 12.22 18.785C11.7472 19.6117 11.499 20.5477 11.5 21.5V22H9.5C8.83696 22 8.20107 21.7366 7.73223 21.2678C7.26339 20.799 7 20.1631 7 19.5C6.99835 18.0418 6.41835 16.6439 5.38726 15.6128C4.35617 14.5817 2.95818 14.0017 1.5 14C1.10218 14 0.720644 14.1581 0.43934 14.4394C0.158035 14.7207 0 15.1022 0 15.5C0 15.8979 0.158035 16.2794 0.43934 16.5607C0.720644 16.842 1.10218 17 1.5 17C2.16304 17 2.79893 17.2634 3.26777 17.7323C3.73661 18.2011 4 18.837 4 19.5C4.00165 20.9582 4.58165 22.3562 5.61274 23.3873C6.64383 24.4184 8.04182 24.9984 9.5 25H11.5V26.5C11.5 26.8979 11.658 27.2794 11.9393 27.5607C12.2206 27.842 12.6022 28 13 28C13.3978 28 13.7794 27.842 14.0607 27.5607C14.342 27.2794 14.5 26.8979 14.5 26.5V21.5C14.5 20.837 14.7634 20.2011 15.2322 19.7323C15.7011 19.2634 16.337 19 17 19C17.663 19 18.2989 19.2634 18.7678 19.7323C19.2366 20.2011 19.5 20.837 19.5 21.5V26.5C19.5 26.8979 19.658 27.2794 19.9393 27.5607C20.2206 27.842 20.6022 28 21 28C21.3978 28 21.7794 27.842 22.0607 27.5607C22.342 27.2794 22.5 26.8979 22.5 26.5V21.5C22.501 20.5477 22.2528 19.6117 21.78 18.785C23.4103 18.3845 24.8595 17.4494 25.8963 16.1289C26.933 14.8085 27.4976 13.1788 27.5 11.5V10.5C27.4922 9.24137 27.1754 8.0039 26.5775 6.89628ZM24.5 11.5C24.5 12.6935 24.0259 13.8381 23.182 14.682C22.3381 15.5259 21.1935 16 20 16H14C12.8065 16 11.6619 15.5259 10.818 14.682C9.97411 13.8381 9.5 12.6935 9.5 11.5V10.5C9.51282 9.60616 9.77848 8.73419 10.2662 7.98503C10.4217 7.78373 10.5218 7.54522 10.5564 7.29323C10.5911 7.04125 10.5591 6.78458 10.4637 6.54878C10.0335 5.43688 10.0157 4.20763 10.4137 3.08378C11.0874 3.20788 11.7282 3.46951 12.2962 3.85234C12.8642 4.23516 13.3472 4.73096 13.715 5.30878C13.8506 5.52061 14.0373 5.69494 14.2579 5.81573C14.4785 5.93652 14.726 5.9999 14.9775 6.00003H19.0212C19.273 6.00011 19.5207 5.93683 19.7415 5.81603C19.9624 5.69523 20.1493 5.52079 20.285 5.30878C20.6527 4.73081 21.1356 4.2349 21.7036 3.85205C22.2716 3.46921 22.9125 3.20767 23.5863 3.08378C23.9843 4.20763 23.9665 5.43688 23.5362 6.54878C23.4447 6.78635 23.4152 7.0433 23.4504 7.29545C23.4856 7.54759 23.5844 7.78662 23.7375 7.99003C24.2232 8.7381 24.4875 9.60822 24.5 10.5V11.5Z" fill="#625FD5"/>
</svg>
