<svg width="25" height="25" viewBox="0 0 25 25" fill="none" xmlns="http://www.w3.org/2000/svg">
<path d="M25 12.5006C24.9999 15.4439 23.9611 18.2927 22.0668 20.5453C20.1724 22.7979 17.544 24.3098 14.6444 24.8147C11.7447 25.3196 8.75996 24.7852 6.2157 23.3055C3.67145 21.8258 1.73094 19.4957 0.735941 16.7258C-0.259054 13.9558 -0.244706 10.9236 0.776458 8.16314C1.79762 5.40271 3.7601 3.09115 6.31824 1.63559C8.87639 0.180034 11.8661 -0.326156 14.7608 0.206176C17.6555 0.738508 20.2696 2.27522 22.1425 4.54564C22.2679 4.69757 22.3622 4.8727 22.4199 5.06105C22.4776 5.24941 22.4977 5.44728 22.4789 5.64339C22.4602 5.83949 22.403 6.02999 22.3106 6.20399C22.2183 6.378 22.0925 6.5321 21.9406 6.65752C21.7887 6.78293 21.6136 6.87719 21.4252 6.93492C21.2369 6.99265 21.039 7.01271 20.8429 6.99396C20.6468 6.97522 20.4563 6.91803 20.2823 6.82566C20.1083 6.7333 19.9542 6.60757 19.8288 6.45564C18.4465 4.77996 16.5317 3.6286 14.4034 3.19345C12.2752 2.7583 10.0622 3.06565 8.13307 4.06427C6.20397 5.06288 4.67537 6.69245 3.80202 8.6814C2.92866 10.6703 2.76331 12.8985 3.33351 14.9946C3.90372 17.0907 5.17503 18.928 6.93559 20.2004C8.69615 21.4729 10.8396 22.1035 13.0087 21.9873C15.1779 21.871 17.2417 21.0149 18.8561 19.5616C20.4706 18.1083 21.5383 16.1456 21.8813 14.0006H12.5C12.1022 14.0006 11.7206 13.8426 11.4393 13.5613C11.158 13.28 11 12.8985 11 12.5006C11 12.1028 11.158 11.7213 11.4393 11.44C11.7206 11.1587 12.1022 11.0006 12.5 11.0006H23.5C23.8978 11.0006 24.2794 11.1587 24.5607 11.44C24.842 11.7213 25 12.1028 25 12.5006Z" fill="#625FD5"/>
</svg>
