<svg width="28" height="43" viewBox="0 0 28 43" fill="none" xmlns="http://www.w3.org/2000/svg">
<path d="M26.5613 36.5611L20.5613 42.5611C20.2795 42.8429 19.8973 43.0012 19.4988 43.0012C19.1002 43.0012 18.718 42.8429 18.4363 42.5611C18.1545 42.2793 17.9961 41.8972 17.9961 41.4986C17.9961 41.1001 18.1545 40.7179 18.4363 40.4361L21.875 36.9999H8.5C6.24566 36.9999 4.08365 36.1044 2.48959 34.5103C0.895533 32.9162 0 30.7542 0 28.4999C0 26.2455 0.895533 24.0835 2.48959 22.4895C4.08365 20.8954 6.24566 19.9999 8.5 19.9999H19.5C19.8978 19.9999 20.2794 20.1579 20.5607 20.4392C20.842 20.7205 21 21.1021 21 21.4999C21 21.8977 20.842 22.2792 20.5607 22.5605C20.2794 22.8419 19.8978 22.9999 19.5 22.9999H8.5C7.04131 22.9999 5.64236 23.5793 4.61091 24.6108C3.57946 25.6423 3 27.0412 3 28.4999C3 29.9586 3.57946 31.3575 4.61091 32.389C5.64236 33.4204 7.04131 33.9999 8.5 33.9999H21.875L18.435 30.5611C18.2955 30.4216 18.1848 30.256 18.1093 30.0737C18.0338 29.8914 17.9949 29.696 17.9949 29.4986C17.9949 29.3013 18.0338 29.1059 18.1093 28.9236C18.1848 28.7413 18.2955 28.5757 18.435 28.4361C18.5745 28.2966 18.7402 28.1859 18.9225 28.1104C19.1048 28.0349 19.3002 27.996 19.4975 27.996C19.6948 27.996 19.8902 28.0349 20.0725 28.1104C20.2548 28.1859 20.4205 28.2966 20.56 28.4361L26.56 34.4361C26.6999 34.5754 26.811 34.7409 26.8868 34.9232C26.9626 35.1055 27.0017 35.301 27.0018 35.4984C27.0019 35.6958 26.9631 35.8913 26.8875 36.0737C26.8119 36.256 26.701 36.4217 26.5613 36.5611Z" fill="#625FD5"/>
<path d="M1.4407 6.4401L7.4407 0.440102C7.7225 0.158309 8.10469 -2.96826e-09 8.5032 0C8.90172 2.97007e-09 9.28391 0.158309 9.5657 0.440102C9.8475 0.721894 10.0058 1.10409 10.0058 1.5026C10.0058 1.90112 9.8475 2.28331 9.5657 2.5651L6.12695 6.00135H19.502C21.7563 6.00135 23.9183 6.89688 25.5124 8.49094C27.1064 10.085 28.002 12.247 28.002 14.5014C28.002 16.7557 27.1064 18.9177 25.5124 20.5118C23.9183 22.1058 21.7563 23.0014 19.502 23.0014H8.50195C8.10413 23.0014 7.7226 22.8433 7.44129 22.562C7.15999 22.2807 7.00195 21.8992 7.00195 21.5014C7.00195 21.1035 7.15999 20.722 7.44129 20.4407C7.7226 20.1594 8.10413 20.0014 8.50195 20.0014H19.502C20.9606 20.0014 22.3596 19.4219 23.391 18.3904C24.4225 17.359 25.002 15.96 25.002 14.5014C25.002 13.0427 24.4225 11.6437 23.391 10.6123C22.3596 9.58081 20.9606 9.00135 19.502 9.00135H6.12695L9.56695 12.4401C9.70648 12.5796 9.81716 12.7453 9.89268 12.9276C9.96819 13.1099 10.0071 13.3053 10.0071 13.5026C10.0071 13.6999 9.96819 13.8953 9.89268 14.0776C9.81716 14.2599 9.70648 14.4256 9.56695 14.5651C9.42742 14.7046 9.26178 14.8153 9.07947 14.8908C8.89717 14.9663 8.70178 15.0052 8.50445 15.0052C8.30713 15.0052 8.11174 14.9663 7.92943 14.8908C7.74713 14.8153 7.58148 14.7046 7.44195 14.5651L1.44195 8.5651C1.30203 8.42583 1.19098 8.26031 1.11516 8.07802C1.03935 7.89574 1.00026 7.70028 1.00014 7.50286C1.00003 7.30544 1.03889 7.10994 1.11449 6.92757C1.19009 6.74519 1.30094 6.57954 1.4407 6.4401Z" fill="#625FD5"/>
</svg>
